<?xml version="1.0" encoding="UTF-8"?>
<!DOCTYPE svg PUBLIC "-//W3C//DTD SVG 1.1//EN" "http://www.w3.org/Graphics/SVG/1.1/DTD/svg11.dtd">
<!-- Creator: CorelDRAW -->
<svg xmlns="http://www.w3.org/2000/svg" xml:space="preserve" width="105.838mm" height="15.0802mm" version="1.1" style="shape-rendering:geometricPrecision; text-rendering:geometricPrecision; image-rendering:optimizeQuality; fill-rule:evenodd; clip-rule:evenodd"
viewBox="0 0 10492.28 1494.98"
 xmlns:xlink="http://www.w3.org/1999/xlink"
 xmlns:xodm="http://www.corel.com/coreldraw/odm/2003">
 <defs>
  <style type="text/css">
   <![CDATA[
    .fil0 {fill:white;fill-rule:nonzero}
   ]]>
  </style>
 </defs>
 <g id="图层_x0020_1">
  <metadata id="CorelCorpID_0Corel-Layer"/>
  <g id="_2690912392464">
   <path class="fil0" d="M311.42 1212.65c-163.05,0 -301.01,164.58 -311.42,243.2 249.02,24.17 599.91,-20.8 771.21,-198.84 -228.52,41.3 -415.73,-15.9 -459.79,-44.35zm549.43 49.25l0 0c168.56,224.23 421.24,178.96 705.14,193.64 10.71,-128.79 -223.94,-247.48 -317.85,-251.46 -122.06,87.18 -377.2,59.65 -387.29,57.82z"/>
   <path class="fil0" d="M784.37 0c-365.87,137.66 -688,463.16 -688,793.55 0,260.02 209.24,470.8 597.45,420.02 11.94,-1.53 23.25,-3.36 34.26,-5.19 -3.36,-1.23 -6.42,-2.76 -8.87,-3.98 -59.34,-29.98 -163.35,-173.46 -119.3,-344.46 4.28,181.41 121.44,313.87 174.68,339.57 8.26,3.98 36.4,14.07 78.01,20.49 158.76,24.48 504.45,14.38 574.81,-357 98.81,-522.2 -643.04,-862.99 -643.04,-862.99z"/>
   <path class="fil0" d="M3260.07 207.66c-9.55,-97.06 -95.47,-152.76 -167.07,-159.12 -76.38,-6.36 -187.77,25.46 -211.64,130.48l-192.54 854.5 -192.54 -854.5c-23.87,-105.02 -135.25,-136.85 -211.63,-130.48 -71.61,6.36 -157.54,62.06 -167.08,159.12l-133.66 1260.27 300.75 0 73.2 -832.23 160.71 696.97c12.73,54.11 109.8,77.97 170.26,77.97 60.47,0 157.54,-23.86 170.26,-77.97l162.3 -700.15 71.62 835.41 300.74 0 -133.66 -1260.27z"/>
   <path id="_1" class="fil0" d="M3513.09 1052.62c0,342.11 249.82,440.77 461.45,440.77 211.64,0 461.46,-98.66 461.46,-440.77l0 -214.82c0,-342.12 -249.82,-440.78 -461.46,-440.78 -216.4,0 -461.45,98.66 -461.45,440.78l0 214.82zm603.08 14.32c0,112.98 -73.2,157.54 -141.62,157.54 -68.42,0 -141.61,-44.55 -141.61,-157.54l0 -243.46c0,-112.97 73.19,-157.54 141.61,-157.54 68.42,0 141.62,44.56 141.62,157.54l0 243.46z"/>
   <path id="_2" class="fil0" d="M4910.2 1467.93l0 -661.96c0,-101.84 71.61,-136.85 122.53,-136.85 52.51,0 120.93,36.6 120.93,144.81l0 654 315.06 0 0 -654c0,-108.21 70.02,-144.81 122.53,-144.81 52.51,0 120.93,36.6 120.93,144.81l0 654 327.8 0 0 -634.91c0,-332.57 -176.63,-436.01 -378.73,-436.01 -128.89,0 -221.18,42.97 -286.42,111.39 -66.83,-79.56 -160.72,-111.39 -257.78,-111.39 -84.33,0 -162.3,30.24 -222.78,87.53 -25.46,-57.29 -84.33,-87.53 -146.39,-87.53 -84.33,0 -160.72,54.11 -160.72,159.13l0 911.78 323.02 0z"/>
   <path id="_3" class="fil0" d="M6183.2 1052.62c0,342.11 249.82,440.77 461.45,440.77 211.64,0 461.46,-98.66 461.46,-440.77l0 -214.82c0,-342.12 -249.82,-440.78 -461.46,-440.78 -216.4,0 -461.45,98.66 -461.45,440.78l0 214.82zm603.08 14.32c0,112.98 -73.2,157.54 -141.62,157.54 -68.42,0 -141.61,-44.55 -141.61,-157.54l0 -243.46c0,-112.97 73.19,-157.54 141.61,-157.54 68.42,0 141.62,44.56 141.62,157.54l0 243.46z"/>
   <path id="_4" class="fil0" d="M7706.01 1467.93l0 -1117.05 243.47 0c92.29,0 128.89,-76.38 128.89,-141.62 0,-65.24 -35,-136.85 -128.89,-136.85l-817.9 0c-93.88,0 -128.89,71.61 -128.89,136.85 0,65.24 36.59,141.62 128.89,141.62l243.47 0 0 1117.05 330.97 0z"/>
   <path id="_5" class="fil0" d="M8842.16 1467.93l0 -599.91c0,-388.26 -203.68,-469.41 -434.41,-469.41 -108.21,0 -241.87,23.87 -326.2,85.93 -55.69,41.37 -81.15,106.61 -50.93,170.26 28.65,63.64 112.98,85.92 170.26,57.28 28.65,-12.73 49.33,-23.87 74.79,-31.82 38.2,-11.14 70.02,-17.51 106.62,-17.51 76.37,0 143.21,25.46 146.39,163.9l-163.9 0c-206.86,0 -389.85,76.38 -389.85,332.57 0,264.15 194.13,335.75 326.2,335.75l35 0c95.48,0 181.4,-36.59 241.87,-93.88l12.73 66.84 251.42 0zm-313.47 -334.16c0,81.15 -68.42,116.16 -127.3,116.16l-22.28 0c-55.69,0 -89.11,-25.46 -89.11,-92.28 0,-66.84 33.42,-97.07 93.88,-97.07l144.81 0 0 73.2z"/>
   <path id="_6" class="fil0" d="M9009.24 1467.93l327.8 0 0 -1261.86c0,-109.79 -74.79,-159.12 -163.9,-159.12 -89.11,0 -163.9,49.33 -163.9,159.12l0 1261.86z"/>
   <path id="_7" class="fil0" d="M10492.28 1467.93l-359.62 -595.13 218.01 -229.14c55.69,-58.88 49.32,-168.67 -17.51,-219.59 -66.84,-50.92 -168.67,-36.6 -221.18,25.46l-281.65 329.4 0 -572.85c0,-105.02 -74.79,-159.12 -157.54,-159.12 -82.75,0 -160.72,54.1 -160.72,159.12l0 1261.86 318.25 0 0 -280.07 89.11 -92.28 213.22 372.35 359.62 0z"/>
  </g>
 </g>
</svg>
